<svg xmlns="http://www.w3.org/2000/svg" width="902" height="646" viewBox="0 0 902 646"><rect width="100%" height="100%" fill="#DDDDDD"/><path fill="#999999" d="M212.67 335.19h29.67l-11.35-31.02q-.84-2.07-1.74-4.9-.9-2.84-1.81-6.13-.83 3.29-1.74 6.16-.9 2.87-1.74 5zm23.68-58.05 36.63 93.27h-13.41q-2.26 0-3.68-1.13t-2.13-2.8l-6.97-19.03h-38.63l-6.97 19.03q-.51 1.48-2 2.7-1.48 1.23-3.67 1.23h-13.55l36.7-93.27zm59.72 46.44v29.67q2.71 3.29 5.9 4.65 3.2 1.35 6.74 1.35 3.68 0 6.62-1.32 2.93-1.32 4.99-4.13 2.07-2.8 3.16-7.16 1.1-4.35 1.1-10.42 0-10.9-3.61-15.77t-10.39-4.87q-4.57 0-7.99 2.1t-6.52 5.9m0-49.02v37.8q4-4.19 8.87-6.68 4.87-2.48 11.13-2.48 5.74 0 10.35 2.26t7.87 6.48q3.26 4.23 5 10.22 1.74 6 1.74 13.48 0 8.07-2 14.65t-5.71 11.25q-3.71 4.68-8.93 7.26-5.23 2.58-11.61 2.58-3.1 0-5.61-.62-2.52-.61-4.65-1.7-2.13-1.1-3.9-2.68t-3.39-3.52l-.71 4.45q-.38 1.68-1.32 2.39-.93.71-2.55.71h-10.51v-95.85zm86.56 28.64q7.35 0 13.39 2.39 6.03 2.38 10.32 6.77 4.28 4.39 6.61 10.71 2.32 6.32 2.32 14.12 0 7.87-2.32 14.19-2.33 6.32-6.61 10.77-4.29 4.45-10.32 6.84-6.04 2.39-13.39 2.39-7.42 0-13.48-2.39t-10.35-6.84-6.64-10.77q-2.36-6.32-2.36-14.19 0-7.8 2.36-14.12 2.35-6.32 6.64-10.71t10.35-6.77q6.06-2.39 13.48-2.39m0 55.92q8.26 0 12.22-5.54 3.97-5.55 3.97-16.26T394.85 321q-3.96-5.61-12.22-5.61-8.38 0-12.41 5.65-4.04 5.64-4.04 16.28t4.04 16.22q4.03 5.58 12.41 5.58m85.92-54.89h15.93v66.18h-9.74q-3.16 0-4-2.9l-1.1-5.29q-4.06 4.13-8.96 6.67-4.91 2.55-11.55 2.55-5.42 0-9.58-1.84-4.16-1.83-7-5.19-2.83-3.35-4.28-7.96-1.46-4.62-1.46-10.16v-42.06h15.94v42.06q0 6.06 2.8 9.38 2.81 3.32 8.42 3.32 4.13 0 7.74-1.83 3.61-1.84 6.84-5.07zm53.72 67.21q-8.64 0-13.25-4.87t-4.61-13.45v-36.95h-6.78q-1.29 0-2.19-.84t-.9-2.52v-6.32l10.64-1.74 3.36-18.06q.32-1.29 1.22-2t2.32-.71h8.26v20.83h17.67v11.36h-17.67v35.86q0 3.09 1.51 4.84 1.52 1.74 4.16 1.74 1.49 0 2.49-.36 1-.35 1.74-.74t1.32-.74q.58-.36 1.16-.36.71 0 1.16.36.46.35.97 1.06l4.77 7.74q-3.48 2.9-7.99 4.39-4.52 1.48-9.36 1.48m97.33-15.03q5.04 0 9-1.67 3.97-1.68 6.68-4.71t4.16-7.35q1.45-4.33 1.45-9.68v-55.86h17.35V333q0 8.32-2.68 15.38-2.67 7.07-7.67 12.19-5 5.13-12.16 8t-16.13 2.87q-9.03 0-16.19-2.87-7.15-2.87-12.15-8-5-5.12-7.68-12.19-2.68-7.06-2.68-15.38v-55.86h17.35v55.8q0 5.35 1.46 9.67 1.45 4.32 4.19 7.39 2.74 3.06 6.71 4.74 3.96 1.67 8.99 1.67m99.72-45.02-3.61 5.74q-.65 1.03-1.36 1.45-.7.42-1.8.42-1.16 0-2.48-.64-1.33-.65-3.07-1.45-1.74-.81-3.96-1.45-2.23-.65-5.26-.65-4.71 0-7.39 2-2.67 2-2.67 5.22 0 2.13 1.38 3.58 1.39 1.46 3.68 2.55 2.29 1.1 5.19 1.97t5.9 1.9 5.91 2.36q2.9 1.32 5.19 3.35t3.67 4.87q1.39 2.84 1.39 6.84 0 4.77-1.71 8.8t-5.06 6.97q-3.36 2.93-8.29 4.58-4.93 1.64-11.38 1.64-3.42 0-6.68-.61t-6.26-1.71-5.54-2.58q-2.55-1.48-4.49-3.23l3.68-6.06q.71-1.09 1.68-1.68.96-.58 2.45-.58 1.48 0 2.8.84 1.33.84 3.07 1.81t4.09 1.81q2.36.83 5.97.83 2.84 0 4.87-.67 2.03-.68 3.35-1.78 1.33-1.09 1.94-2.55.61-1.45.61-2.99 0-2.33-1.39-3.81-1.38-1.48-3.67-2.58t-5.23-1.97q-2.93-.87-5.99-1.9-3.07-1.03-6-2.42-2.94-1.39-5.23-3.51-2.29-2.13-3.67-5.23-1.39-3.09-1.39-7.48 0-4.06 1.61-7.74t4.74-6.42 7.81-4.38q4.67-1.65 10.8-1.65 6.84 0 12.45 2.26t9.35 5.93"/></svg>